<?xml version="1.0" ?><svg enable-background="new 0 0 32 32" version="1.1" viewBox="0 0 32 32" xml:space="preserve" xmlns="http://www.w3.org/2000/svg" xmlns:xlink="http://www.w3.org/1999/xlink"><g id="GLYPH"><g><path d="M16,32c8.837,0,16-7.163,16-16c0-8.837-7.163-16-16-16S0,7.163,0,16C0,24.837,7.163,32,16,32z M16,2.191    c7.626,0,13.809,6.182,13.809,13.809c0,7.626-6.182,13.809-13.809,13.809S2.191,23.626,2.191,16C2.191,8.374,8.374,2.191,16,2.191    z"/><path d="M16,27.597c6.405,0,11.597-5.192,11.597-11.597S22.405,4.403,16,4.403S4.403,9.595,4.403,16S9.595,27.597,16,27.597z     M9.384,18.096c1.048,0,1.572,1.048,1.572,1.048c0.92,1.561,2.556,1.31,3.144,1.048c0-0.524,0.229-1.316,0.524-1.572    c-2.289-0.258-4.194-1.572-4.194-4.192c0-2.62,0.526-3.144,1.05-3.668c-0.106-0.258-0.544-1.213,0.016-2.62    c0,0,1.03,0,2.078,1.572c0.519-0.519,2.096-0.524,2.62-0.524c0.523,0,2.1,0.005,2.619,0.524c1.048-1.572,2.08-1.572,2.08-1.572    c0.56,1.407,0.122,2.362,0.016,2.62c0.524,0.524,1.048,1.048,1.048,3.668c0,2.62-1.903,3.934-4.192,4.192    c0.295,0.256,0.524,1.157,0.524,1.572v3.668h-2.093H14.1c0,0,0.006-1.243,0-2.096c-2.868,0.617-3.668-1.572-3.668-1.572    c-0.524-1.048-1.048-1.572-1.048-1.572C8.336,17.997,9.384,18.096,9.384,18.096z"/></g></g></svg>