<?xml version="1.0" ?><svg enable-background="new 0 0 32 32" version="1.1" viewBox="0 0 32 32" xml:space="preserve" xmlns="http://www.w3.org/2000/svg" xmlns:xlink="http://www.w3.org/1999/xlink"><g id="GLYPH"><g><path d="M16,32c8.837,0,16-7.163,16-16S24.837,0,16,0S0,7.163,0,16S7.163,32,16,32z M16,2.191c7.626,0,13.809,6.182,13.809,13.809    S23.626,29.809,16,29.809S2.191,23.626,2.191,16S8.374,2.191,16,2.191z"/><path d="M16,27.597c6.405,0,11.597-5.192,11.597-11.597S22.405,4.403,16,4.403S4.403,9.595,4.403,16S9.595,27.597,16,27.597z     M12.302,21.474H9.398v-8.737h2.904V21.474z M13.909,12.737h2.904v1.238c0.385-0.595,1.076-1.443,2.617-1.443    c1.91,0,3.343,1.249,3.343,3.933v5.01v0H19.87V16.8c0-1.174-0.42-1.975-1.471-1.975c-0.802,0-1.28,0.54-1.489,1.062    c-0.077,0.186-0.096,0.447-0.096,0.708v4.88h-2.904C13.909,21.474,13.948,13.557,13.909,12.737z M10.869,8.525    c0.993,0,1.605,0.652,1.624,1.509c0,0.839-0.631,1.51-1.643,1.51h-0.018c-0.975,0-1.605-0.672-1.605-1.51    C9.226,9.177,9.876,8.525,10.869,8.525z"/></g></g></svg>