<?xml version="1.0" ?><svg enable-background="new 0 0 32 32" version="1.1" viewBox="0 0 32 32" xml:space="preserve" xmlns="http://www.w3.org/2000/svg" xmlns:xlink="http://www.w3.org/1999/xlink"><g id="GLYPH"><g><path d="M16,0C7.163,0,0,7.163,0,16s7.163,16,16,16s16-7.163,16-16S24.837,0,16,0z M16,29.809C8.374,29.809,2.191,23.626,2.191,16    S8.374,2.191,16,2.191S29.809,8.374,29.809,16S23.626,29.809,16,29.809z"/><path d="M16.114,10.218c-0.363,0-0.706,0.057-1.039,0.139C15.619,10.601,16,11.14,16,11.769c0,0.857-0.702,1.551-1.567,1.551    c-0.861,0-1.558-0.688-1.566-1.538c-0.531,0.684-0.856,1.539-0.856,2.497c0,2.068,1.786,3.836,4.103,3.836    c2.089,0,3.875-1.768,3.875-3.836C19.989,11.986,18.203,10.218,16.114,10.218z"/><path d="M16,4.403C9.595,4.403,4.403,9.595,4.403,16S9.595,27.597,16,27.597S27.597,22.405,27.597,16S22.405,4.403,16,4.403z     M16.092,24.32c-1.486,0-6.645-5.851-6.645-9.773c0-3.755,2.934-6.867,6.645-6.867c3.527,0,6.461,3.112,6.461,6.867    C22.553,18.469,17.394,24.32,16.092,24.32z"/></g></g></svg>