<?xml version="1.0" ?><svg enable-background="new 0 0 32 32" version="1.1" viewBox="0 0 32 32" xml:space="preserve" xmlns="http://www.w3.org/2000/svg" xmlns:xlink="http://www.w3.org/1999/xlink"><g id="GLYPH"><g><path d="M16,32c8.837,0,16-7.163,16-16S24.837,0,16,0S0,7.163,0,16S7.163,32,16,32z M16,2.191c7.626,0,13.809,6.182,13.809,13.809    S23.626,29.809,16,29.809S2.191,23.626,2.191,16S8.374,2.191,16,2.191z"/><path d="M16,27.597c6.405,0,11.597-5.192,11.597-11.597S22.405,4.403,16,4.403S4.403,9.595,4.403,16S9.595,27.597,16,27.597z     M12.662,19.206c-0.903-0.312-1.714-1.028-1.919-1.702c-0.062-0.218-0.041-0.229,0.533-0.229l0.595-0.01l-0.503-0.239    c-0.596-0.301-1.139-0.809-1.406-1.328c-0.195-0.374-0.441-1.318-0.369-1.391c0.021-0.031,0.236,0.031,0.482,0.114    c0.708,0.26,0.8,0.197,0.39-0.239c-0.769-0.789-1.006-1.961-0.636-3.072l0.174-0.498l0.677,0.674    c1.386,1.36,3.018,2.169,4.885,2.407l0.513,0.062l-0.031-0.508c-0.092-1.318,0.719-2.521,2.001-2.988    c0.472-0.166,1.273-0.187,1.797-0.042c0.206,0.062,0.595,0.27,0.872,0.456l0.503,0.343l0.554-0.177    c0.308-0.093,0.719-0.249,0.903-0.353c0.175-0.094,0.329-0.145,0.329-0.114c0,0.176-0.38,0.778-0.698,1.11    c-0.432,0.467-0.308,0.508,0.564,0.197c0.523-0.176,0.534-0.176,0.431,0.021c-0.062,0.104-0.38,0.467-0.719,0.799    c-0.575,0.571-0.605,0.633-0.605,1.11c0,0.736-0.349,2.272-0.698,3.112c-0.647,1.578-2.032,3.207-3.418,4.027    c-1.95,1.151-4.547,1.442-6.733,0.768c-0.728-0.229-1.981-0.81-1.981-0.913c0-0.031,0.38-0.073,0.842-0.083    c0.965-0.02,1.93-0.289,2.751-0.768l0.554-0.332L12.662,19.206z"/></g></g></svg>